Full Credits to (Pitic):


 ######## ######## ######## ##          ######## ########  ######## ######
 ##       ##       ##       ##          ##       ##     ## ##       ##       
 ##       ##       ##       ##          ##       ##     ## ##       ##       
 ######   ######   ######   ##          ######   ########  ######   ######   
 ##       ##       ##       ##          ##       ##   ##   ##       ##       
 ##       ##       ##       ##          ##       ##    ##  ##       ##       
 ##       ######## ######## ########    ##       ##     ## ######## ######


Genre:Action | Drama 
 Language:English
 IMDb: 
http://www.imdb.com/title/tt1421499/
 Source:DVD

 Format : MPEG-4
 Format profile : Base Media
 Codec ID : isom
 File size : 1.25 GiB
 Duration : 1h 32mn
 Overall bit rate : 1 945 Kbps

 Video
 ID : 1
 Format : AVC
 Format/Info : Advanced Video Codec
 Format profile : High@L4.1
 Format settings, CABAC : Yes
 Format settings, ReFrames : 3 frames
 Codec ID : avc1
 Codec ID/Info : Advanced Video Coding
 Duration : 1h 32mn
 Bit rate mode : Variable
 Bit rate : 1 500 Kbps
 Maximum bit rate : 9 457 Kbps
 Width : 720 pixels
 Height : 400 pixels
 Display aspect ratio : 16:9
 Frame rate mode : Constant
 Frame rate : 25.000 fps
 Color space : YUV
 Chroma subsampling : 4:2:0
 Bit depth : 8 bits
 Scan type : Progressive
 Bits/(Pixel*Frame) : 0.208
 Stream size : 989 MiB (77%)
 Writing library : x264

 Audio
 ID : 2
 Format : AAC
 Format/Info : Advanced Audio Codec
 Format version : Version 4
 Format profile : LC
 Format settings, SBR : No
 Codec ID : 40
 Duration : 1h 32mn
 Bit rate mode : Variable
 Bit rate : 443 Kbps
 Maximum bit rate : 524 Kbps
 Channel(s) : 6 channels
 Channel positions : Front: L C R, Side: L R, LFE
 Sampling rate : 48.0 KHz
 Stream size : 292 MiB (23%)

 Plot:
 About the struggle between the Roman Empire and its rebellious conquest Judaea, and two best friends caught in a terrible moment in history.


Greets:

 INK,CRYS,IMAGINE,LKRG,FXG,3Li,FLAWL3SS,TA,iLLUSiON,ViSiON,DTRG SAFCuk009,LU,TheFalcon007,MYSTiC,PrisM,Noir,WBZ,LAP,Rx,Kingdom,SAFCuk009+Fabreezy,HDLiTE,TWiZTED,ExtraTorrentRG.ELEKTRI4KA,MAGNAT,CM8
 And to all the other p2p grps past and present




----------------------------------                         
http://thepiratebay.org/user/hiest
----------------------------------




Screenshots:
 
http://www.pix2links.com/images/65961338267592191360.png
 
http://www.pix2links.com/images/94552294527252910891.png
 
http://www.pix2links.com/images/01164259478374828641.png
 
http://www.pix2links.com/images/60909953473182237570.png
 
http://www.pix2links.com/images/27468230797849654687.png
 
http://www.pix2links.com/images/01828190289775078810.png
 
http://www.pix2links.com/images/27558030487537158711.png



Full Credits to (Pitic):


 ######## ######## ######## ##          ######## ########  ######## ######
 ##       ##       ##       ##          ##       ##     ## ##       ##       
 ##       ##       ##       ##          ##       ##     ## ##       ##       
 ######   ######   ######   ##          ######   ########  ######   ######   
 ##       ##       ##       ##          ##       ##   ##   ##       ##       
 ##       ##       ##       ##          ##       ##    ##  ##       ##       
 ##       ######## ######## ########    ##       ##     ## ######## ######